<?xml version="1.0" standalone="no"?>
<!DOCTYPE svg PUBLIC "-//W3C//DTD SVG 20010904//EN"
 "http://www.w3.org/TR/2001/REC-SVG-20010904/DTD/svg10.dtd">
<svg version="1.0" xmlns="http://www.w3.org/2000/svg"
 width="96.000000pt" height="96.000000pt" viewBox="0 0 96.000000 96.000000"
 preserveAspectRatio="xMidYMid meet">

<g transform="translate(0.000000,96.000000) scale(0.100000,-0.100000)"
fill="#000000" stroke="none">
<path d="M123 758 c12 -167 81 -321 198 -437 116 -117 270 -186 437 -198 l82
-6 0 111 0 111 -42 6 c-24 3 -70 9 -103 14 l-60 8 -53 -51 -52 -50 -38 19
c-48 26 -181 159 -207 207 l-19 38 50 52 51 53 -8 60 c-5 33 -11 79 -14 103
l-6 42 -111 0 -111 0 6 -82z"/>
</g>
</svg>
