<?xml version="1.0" standalone="no"?>
<!DOCTYPE svg PUBLIC "-//W3C//DTD SVG 20010904//EN"
 "http://www.w3.org/TR/2001/REC-SVG-20010904/DTD/svg10.dtd">
<svg version="1.0" xmlns="http://www.w3.org/2000/svg"
 width="512.000000pt" height="512.000000pt" viewBox="0 0 512.000000 512.000000"
 preserveAspectRatio="xMidYMid meet">

<g transform="translate(0.000000,512.000000) scale(0.100000,-0.100000)"
fill="#000000" stroke="none">
<path d="M1526 4069 c-37 -29 -35 -80 5 -139 41 -60 37 -122 -10 -178 -106
-125 -119 -272 -36 -398 41 -63 80 -82 126 -63 35 14 63 66 52 96 -4 10 -19
38 -35 62 -43 69 -36 120 27 194 19 22 44 66 56 96 67 178 -69 421 -185 330z"/>
<path d="M3480 4064 c-79 -67 -112 -216 -71 -325 12 -30 37 -74 56 -96 63 -74
70 -125 27 -194 -16 -24 -31 -52 -35 -62 -11 -30 17 -82 52 -96 46 -19 85 0
126 63 83 126 70 273 -36 398 -47 56 -51 118 -10 178 40 59 42 110 5 139 -36
28 -76 26 -114 -5z"/>
<path d="M2447 3750 c-158 -62 -237 -235 -182 -400 22 -65 109 -159 168 -181
l37 -13 0 -77 0 -76 -75 -6 c-474 -40 -948 -350 -1199 -783 -124 -214 -201
-472 -208 -702 -3 -81 -2 -85 25 -108 l28 -24 1517 0 c1375 0 1520 2 1540 16
36 25 41 53 31 165 -29 336 -161 646 -385 904 -256 294 -652 501 -1019 532
l-75 6 0 76 0 77 37 13 c59 22 146 116 168 181 55 166 -24 341 -182 400 -68
25 -161 26 -226 0z m179 -166 c44 -21 74 -70 74 -123 0 -140 -158 -200 -250
-95 -25 29 -30 43 -30 86 0 114 103 181 206 132z m167 -940 c237 -45 458 -163
638 -343 110 -111 193 -230 255 -369 52 -116 54 -143 15 -183 -60 -59 -110
-29 -164 98 -159 373 -505 616 -924 648 -75 6 -95 11 -112 29 -36 40 -28 106
17 131 31 18 144 13 275 -11z"/>
<path d="M1019 3681 c-38 -38 -37 -71 2 -126 50 -70 42 -141 -27 -215 -70 -76
-89 -219 -42 -321 57 -124 150 -159 196 -72 18 33 15 56 -17 104 -48 72 -45
129 9 197 61 77 83 134 83 218 0 86 -32 164 -89 213 -44 39 -77 39 -115 2z"/>
<path d="M3986 3679 c-57 -49 -89 -127 -89 -213 0 -84 22 -141 83 -218 54 -68
57 -125 9 -197 -32 -48 -35 -71 -17 -104 30 -57 89 -63 138 -14 110 110 112
294 5 419 -61 72 -65 141 -11 210 34 46 33 82 -3 119 -38 37 -71 37 -115 -2z"/>
<path d="M552 1793 c-30 -12 -44 -64 -37 -137 16 -162 85 -305 205 -426 87
-88 195 -149 316 -180 75 -19 117 -20 1518 -20 1618 0 1512 -4 1676 76 153 76
276 215 335 377 27 74 50 216 41 252 -24 95 -166 81 -166 -17 0 -61 -30 -173
-62 -238 -65 -129 -217 -244 -357 -270 -34 -6 -567 -10 -1465 -10 -1555 0
-1476 -3 -1600 63 -81 43 -173 136 -214 217 -32 65 -62 177 -62 238 0 60 -67
100 -128 75z"/>
</g>
</svg>
