<?xml version="1.0" standalone="no"?>
<!DOCTYPE svg PUBLIC "-//W3C//DTD SVG 20010904//EN"
 "http://www.w3.org/TR/2001/REC-SVG-20010904/DTD/svg10.dtd">
<svg version="1.0" xmlns="http://www.w3.org/2000/svg"
 width="512.000000pt" height="512.000000pt" viewBox="0 0 512.000000 512.000000"
 preserveAspectRatio="xMidYMid meet">

<g transform="translate(0.000000,512.000000) scale(0.100000,-0.100000)"
fill="#000000" stroke="none">
<path d="M4592 5102 c-20 -11 -258 -292 -665 -787 -569 -691 -636 -769 -658
-765 -13 3 -69 5 -124 5 -92 0 -106 -3 -168 -32 -80 -38 -173 -122 -210 -191
-177 -326 92 -713 459 -661 284 40 460 348 349 611 -15 35 -28 70 -28 79 -1 9
275 352 613 764 338 411 623 762 632 779 67 123 -75 264 -200 198z"/>
<path d="M2450 4806 c-121 -34 -242 -132 -289 -234 l-24 -52 -854 0 c-836 0
-855 0 -893 -20 -45 -23 -80 -80 -80 -130 0 -50 35 -107 80 -130 38 -20 57
-20 893 -20 l854 0 24 -52 c13 -29 49 -78 79 -109 178 -182 455 -184 635 -4
178 177 178 453 0 630 -113 114 -280 161 -425 121z"/>
<path d="M2230 3593 c-848 -36 -1497 -153 -1875 -338 -200 -98 -303 -195 -340
-319 -103 -345 375 -616 1320 -750 420 -60 739 -81 1225 -81 793 1 1485 85
1958 241 383 125 579 281 599 477 28 268 -309 488 -960 626 l-137 29 -69 -83
-68 -83 14 -68 c20 -91 12 -245 -18 -339 -128 -414 -557 -637 -960 -500 -230
79 -404 262 -480 505 -34 108 -34 293 -1 400 28 89 72 178 119 243 l35 47
-149 -2 c-81 -1 -177 -3 -213 -5z"/>
<path d="M0 1633 c0 -366 2 -664 4 -662 10 11 596 1042 596 1049 0 4 -37 20
-82 35 -172 56 -348 137 -450 206 -31 22 -59 39 -62 39 -4 0 -6 -300 -6 -667z"/>
<path d="M5055 2264 c-99 -70 -325 -172 -487 -221 -27 -7 -48 -18 -48 -22 0
-7 585 -1038 596 -1050 2 -2 4 296 4 662 0 367 -3 667 -7 666 -5 0 -30 -16
-58 -35z"/>
<path d="M871 1881 c-118 -203 -724 -1266 -728 -1278 -22 -56 298 -248 572
-343 206 -71 602 -164 735 -172 39 -3 45 0 47 17 2 11 -99 425 -225 920 l-227
900 -68 11 -68 11 -38 -66z"/>
<path d="M4142 1936 c-37 -7 -67 -17 -71 -26 -5 -8 -109 -419 -232 -912 -172
-692 -221 -900 -212 -909 9 -9 47 -6 165 16 519 93 931 250 1142 436 29 26 46
48 43 58 -4 18 -755 1333 -765 1342 -4 3 -35 1 -70 -5z"/>
<path d="M1370 1869 c0 -2 74 -296 164 -654 137 -545 165 -646 174 -625 5 14
121 284 257 600 136 316 250 585 252 598 5 21 3 22 -68 22 -118 0 -528 32
-726 56 -29 4 -53 5 -53 3z"/>
<path d="M3530 1850 c-192 -21 -466 -40 -563 -40 -47 0 -67 -4 -67 -12 0 -16
513 -1217 520 -1218 3 0 78 290 166 645 l161 645 -26 -1 c-14 -1 -100 -10
-191 -19z"/>
<path d="M2185 944 c-291 -679 -365 -861 -360 -883 l6 -28 167 -12 c366 -27
825 -25 1209 5 80 7 82 8 88 35 5 22 -68 201 -360 883 -202 471 -371 856 -375
856 -4 0 -173 -385 -375 -856z"/>
</g>
</svg>
