<?xml version="1.0" standalone="no"?>
<!DOCTYPE svg PUBLIC "-//W3C//DTD SVG 20010904//EN"
 "http://www.w3.org/TR/2001/REC-SVG-20010904/DTD/svg10.dtd">
<svg version="1.0" xmlns="http://www.w3.org/2000/svg"
 width="1500.000000pt" height="1225.000000pt" viewBox="0 0 1500.000000 1225.000000"
 preserveAspectRatio="xMidYMid meet">
<metadata>
Created by potrace 1.16, written by Peter Selinger 2001-2019
</metadata>
<g transform="translate(0.000000,1225.000000) scale(0.100000,-0.100000)"
fill="#000000" stroke="none">
<path d="M10095 11864 c-200 -26 -413 -102 -503 -179 -40 -35 -100 -121 -90
-130 3 -3 38 20 79 51 121 91 227 136 405 172 136 28 313 47 325 35 17 -17
-102 -61 -183 -68 -101 -9 -181 -31 -263 -70 -77 -37 -125 -75 -125 -100 0
-22 27 -13 110 36 71 42 162 69 225 68 31 0 21 -4 -48 -19 -91 -19 -177 -60
-177 -85 0 -19 37 -19 81 -1 45 19 215 45 230 35 20 -12 -45 -39 -95 -39 -64
0 -148 -20 -143 -33 4 -13 4 -13 129 -22 47 -4 95 -13 105 -20 17 -13 17 -15
-4 -36 -17 -18 -38 -23 -111 -29 -50 -4 -105 -12 -124 -18 -18 -6 -49 -13 -70
-16 -20 -4 -38 -12 -41 -20 -7 -19 -93 -59 -152 -71 -40 -8 -50 -15 -50 -30 0
-18 7 -20 55 -20 58 0 116 21 147 54 29 31 157 61 260 61 78 0 94 3 119 22 16
12 32 27 36 33 13 17 9 70 -7 92 -14 21 -14 24 6 44 16 16 20 29 16 55 -5 29
-2 35 21 46 17 8 28 23 30 38 2 18 14 30 43 43 69 32 84 98 29 127 -25 13
-141 11 -265 -6z"/>
<path d="M9377 11528 c58 -200 54 -382 -12 -513 -44 -88 -169 -220 -280 -295
-145 -98 -268 -241 -345 -401 -62 -131 -79 -212 -80 -391 -2 -329 0 -422 9
-412 5 5 26 106 46 224 59 351 92 454 201 617 66 98 153 189 283 293 146 117
267 284 291 404 18 90 15 275 -6 338 -30 94 -100 218 -123 218 -4 0 3 -37 16
-82z"/>
<path d="M9169 11500 c-74 -42 -306 -164 -515 -270 -383 -195 -509 -266 -606
-342 -174 -136 -231 -206 -354 -429 -61 -110 -153 -259 -161 -259 -3 0 -2 11
1 25 5 18 -1 33 -25 59 -16 19 -39 38 -50 41 -13 4 -19 15 -19 33 0 42 -25 68
-74 81 -51 12 -140 15 -133 4 3 -5 35 -23 72 -42 l67 -34 -7 -45 c-8 -54 1
-62 67 -62 43 0 47 -2 57 -31 24 -69 15 -83 -165 -276 -58 -62 -103 -113 -99
-113 11 0 68 32 113 62 l43 30 -38 -51 c-79 -104 -116 -259 -94 -392 13 -82
30 -119 78 -173 43 -47 89 -142 104 -215 17 -80 26 -82 34 -8 10 90 0 135 -56
262 -28 64 -53 139 -60 181 -10 63 -9 80 10 155 26 103 56 166 126 264 53 73
55 87 12 63 -12 -6 9 22 46 63 38 41 138 172 225 292 241 337 348 426 767 642
131 67 453 278 580 380 115 93 201 171 195 178 -3 3 -66 -30 -141 -73z"/>
<path d="M10756 11433 c10 -177 5 -478 -11 -618 -55 -472 -211 -900 -473
-1295 -253 -381 -638 -749 -1027 -981 -58 -34 -103 -64 -101 -67 6 -5 140 67
286 154 372 220 711 538 934 878 238 362 380 776 425 1240 16 158 13 431 -4
581 -21 173 -36 231 -29 108z"/>
<path d="M9247 11364 c-59 -238 -272 -552 -611 -901 -71 -73 -125 -133 -121
-133 4 0 73 43 154 96 121 80 168 119 276 228 252 254 357 462 343 683 -7 101
-21 111 -41 27z"/>
<path d="M9070 11278 c-92 -144 -282 -311 -539 -474 -68 -43 -119 -80 -113
-82 14 -4 173 59 267 105 118 59 303 219 366 316 35 54 58 111 73 180 10 44
-6 31 -54 -45z"/>
<path d="M6355 10775 c-5 -1 -36 -8 -69 -15 -32 -6 -54 -15 -50 -20 5 -4 59
-13 119 -20 166 -18 234 -34 462 -109 114 -38 247 -77 295 -86 l86 -17 -86
-87 c-62 -61 -98 -107 -126 -160 -38 -73 -39 -76 -44 -205 -5 -136 8 -235 32
-255 11 -9 14 13 18 116 6 161 32 240 143 442 78 141 79 143 109 137 l31 -6
-30 25 c-49 41 -302 162 -415 199 -134 45 -259 66 -374 65 -50 0 -95 -2 -101
-4z"/>
<path d="M6162 10609 c-43 -91 -62 -174 -62 -265 0 -101 13 -146 55 -192 39
-43 162 -111 322 -176 61 -25 138 -60 170 -77 64 -36 229 -131 281 -161 59
-35 33 0 -55 77 -143 124 -279 210 -452 287 -169 76 -212 108 -230 175 -14 49
-14 150 0 268 15 130 9 145 -29 64z"/>
<path d="M6364 10632 c3 -6 27 -13 52 -17 56 -8 260 -72 403 -127 57 -21 105
-37 108 -34 9 8 -65 56 -138 90 -87 40 -215 73 -314 81 -38 4 -81 8 -93 11
-13 3 -21 1 -18 -4z"/>
<path d="M8122 10098 c-67 -85 -141 -348 -207 -745 -58 -349 -127 -535 -270
-728 -87 -118 -354 -361 -648 -588 -65 -50 -114 -93 -108 -95 16 -5 244 107
361 178 306 185 432 289 534 444 74 111 111 188 156 325 51 152 65 225 90 471
40 387 85 682 112 733 10 20 -4 24 -20 5z"/>
<path d="M8471 9876 c-19 -77 -51 -350 -76 -661 -13 -165 -29 -345 -34 -400
-18 -176 -84 -363 -190 -538 -215 -352 -428 -527 -971 -794 -473 -233 -738
-408 -956 -634 -91 -95 -209 -249 -190 -249 2 0 44 34 92 76 196 168 477 367
699 494 153 89 284 149 470 215 269 97 434 192 597 345 159 149 272 306 398
555 100 197 131 324 159 655 26 289 41 980 22 980 -5 0 -14 -20 -20 -44z"/>
<path d="M5930 9873 c-14 -3 -88 -20 -165 -39 -695 -174 -1203 -509 -1549
-1022 -132 -195 -228 -409 -288 -644 -40 -151 -30 -190 16 -63 195 543 611
1051 1098 1342 224 133 499 264 766 364 170 63 191 74 122 62z"/>
<path d="M11064 9679 c-101 -403 -383 -853 -861 -1374 -66 -71 -181 -188 -256
-259 -75 -71 -135 -131 -133 -134 6 -5 182 127 296 222 116 96 306 282 400
391 320 373 525 787 580 1172 18 126 7 118 -26 -18z"/>
<path d="M7133 9723 c-49 -108 -57 -142 -57 -234 0 -80 3 -93 37 -162 26 -52
54 -91 93 -126 31 -28 60 -51 66 -51 5 0 -6 21 -25 48 -49 67 -75 122 -92 194
-19 82 -19 220 1 314 8 42 13 78 11 80 -2 2 -18 -26 -34 -63z"/>
<path d="M6994 9719 c-286 -150 -388 -436 -287 -809 l18 -65 12 161 c17 235
57 385 141 529 39 66 130 167 177 196 50 31 3 22 -61 -12z"/>
<path d="M6980 9609 c-83 -115 -115 -337 -64 -444 10 -22 50 -72 89 -111 73
-74 147 -121 295 -187 111 -50 143 -76 176 -143 22 -44 29 -75 32 -141 3 -46
8 -81 12 -76 4 4 15 30 24 57 22 69 21 167 -3 214 -39 77 -155 162 -379 281
-118 63 -126 69 -156 121 -30 54 -31 58 -30 180 0 104 5 139 26 208 14 45 21
82 17 82 -5 0 -22 -18 -39 -41z"/>
<path d="M6631 9429 c-116 -251 -144 -469 -81 -617 25 -58 95 -129 159 -162
64 -32 186 -60 260 -59 l66 0 -80 23 c-206 57 -316 160 -362 339 -30 118 0
346 66 501 37 84 13 63 -28 -25z"/>
<path d="M6482 9376 c-113 -107 -176 -251 -174 -396 1 -134 66 -299 157 -399
l50 -55 -50 28 c-161 93 -293 208 -347 303 -17 30 -32 52 -34 50 -3 -2 4 -32
15 -66 l19 -63 -20 19 c-101 91 -35 216 174 329 57 30 60 34 33 34 -46 0 -143
-27 -204 -57 -64 -33 -128 -102 -137 -150 -15 -80 47 -173 131 -195 34 -9 46
-19 59 -46 27 -57 112 -137 179 -170 61 -30 101 -40 182 -45 22 -2 58 -13 80
-24 63 -33 186 -46 363 -40 115 4 178 11 236 27 82 22 216 78 216 90 0 4 -26
2 -57 -3 -87 -16 -436 -15 -508 1 -137 30 -217 63 -269 111 -187 174 -207 419
-56 699 22 41 39 77 36 79 -2 2 -35 -25 -74 -61z"/>
<path d="M5583 9355 c-165 -84 -280 -172 -448 -340 -222 -222 -379 -445 -537
-763 -50 -100 -68 -146 -60 -154 7 -7 35 27 93 113 97 146 160 230 323 434
288 359 504 575 716 716 33 22 60 42 60 44 0 16 -53 -2 -147 -50z"/>
<path d="M5850 9210 c-40 -10 -62 -36 -58 -70 4 -30 64 -66 126 -76 67 -10 52
-47 -26 -60 -48 -8 -68 3 -135 70 -57 57 -102 72 -151 52 -32 -13 -36 -19 -36
-51 0 -31 9 -46 59 -98 32 -34 70 -81 84 -103 46 -74 152 -131 262 -141 91 -8
85 15 -9 40 -37 9 -80 24 -96 32 -32 16 -131 127 -168 188 -13 20 -27 37 -30
37 -4 0 -13 9 -20 20 -22 35 9 24 79 -29 86 -65 115 -74 179 -55 37 11 56 24
74 51 16 24 22 41 17 51 -5 8 -39 26 -76 41 -83 32 -95 51 -32 51 47 0 110
-21 139 -47 20 -18 48 -11 48 11 0 21 -108 83 -155 89 -22 3 -56 2 -75 -3z"/>
<path d="M8020 8663 c-100 -220 -288 -462 -460 -592 -43 -32 -138 -89 -211
-126 -184 -93 -297 -160 -479 -280 -362 -240 -572 -459 -640 -668 -16 -49 -6
-58 22 -21 143 182 321 365 458 468 119 90 250 169 550 331 281 152 373 211
479 311 136 127 225 265 280 429 28 85 51 215 37 215 -3 0 -19 -30 -36 -67z"/>
<path d="M8493 8453 c7 -114 37 -207 90 -285 36 -52 64 -77 169 -148 69 -47
161 -115 205 -152 180 -151 433 -437 578 -654 199 -295 385 -786 445 -1169 18
-112 24 -572 11 -772 -28 -414 -107 -892 -216 -1298 -19 -71 -32 -131 -30
-134 9 -8 33 30 89 139 154 298 276 712 371 1261 39 225 43 328 25 584 -38
534 -156 963 -361 1317 -107 183 -318 422 -509 575 -105 84 -165 126 -445 308
-238 155 -349 282 -400 458 -9 31 -19 57 -22 57 -3 0 -3 -39 0 -87z"/>
<path d="M8400 8299 c0 -42 38 -157 78 -234 21 -38 77 -119 126 -180 186 -231
374 -549 505 -856 179 -418 275 -1199 206 -1659 -93 -610 -391 -1277 -840
-1875 -53 -71 -102 -136 -107 -142 -7 -8 -7 -13 -1 -13 15 0 168 178 277 323
257 342 511 785 601 1047 195 572 250 1201 149 1727 -72 380 -250 822 -420
1045 -370 482 -525 703 -556 793 -13 37 -17 43 -18 24z"/>
<path d="M8164 7890 c3 -64 14 -117 46 -215 140 -436 154 -885 40 -1330 -124
-486 -352 -840 -713 -1111 -559 -419 -1345 -664 -2325 -726 -225 -14 -223 -23
6 -40 251 -19 614 10 972 78 265 50 728 173 890 236 241 94 520 279 729 482
188 184 304 342 411 561 157 319 208 602 197 1078 -8 369 -54 582 -176 822
-17 33 -38 94 -47 135 -25 117 -35 127 -30 30z"/>
<path d="M8005 7675 c3 -38 20 -137 36 -220 30 -144 31 -157 26 -330 -6 -209
-24 -308 -93 -515 -106 -321 -297 -603 -541 -802 -109 -89 -285 -203 -365
-236 -293 -122 -785 -177 -1108 -123 -450 74 -959 258 -1539 557 -112 58 -205
103 -208 101 -6 -7 83 -76 199 -153 293 -196 842 -422 1363 -562 204 -55 286
-66 520 -66 563 0 973 164 1325 530 185 192 305 383 406 640 59 150 82 251 96
420 20 239 -12 513 -83 717 l-39 112 5 -70z"/>
<path d="M7845 7423 c-28 -78 -131 -268 -197 -366 -388 -578 -955 -871 -1633
-844 -390 16 -794 124 -1257 338 -82 37 -148 65 -148 61 1 -22 300 -202 500
-302 767 -384 1451 -411 1954 -76 334 223 610 627 781 1144 29 89 30 124 0 45z"/>
<path d="M8817 5663 c-3 -4 -24 -57 -48 -118 -55 -142 -206 -441 -289 -573
-317 -504 -750 -893 -1295 -1162 -362 -179 -710 -286 -1095 -335 -69 -9 -126
-18 -128 -20 -10 -9 277 -17 422 -11 905 37 1567 381 2013 1046 196 292 350
685 413 1056 18 107 20 139 7 117z"/>
<path d="M6103 2808 c-16 -13 -43 -39 -59 -58 -16 -19 -31 -37 -34 -40 -5 -5
-23 -37 -55 -100 -32 -62 -54 -203 -36 -230 13 -20 30 -3 35 36 3 16 12 46 20
67 9 20 14 37 11 37 -3 0 8 21 26 46 53 77 118 104 154 64 35 -38 68 -21 92
49 33 94 3 151 -78 151 -31 0 -55 -7 -76 -22z"/>
<path d="M8234 2693 c-3 -10 -12 -31 -19 -48 -8 -16 -17 -48 -20 -70 l-6 -40
59 -32 59 -32 22 23 c20 22 28 41 48 124 7 29 -12 50 -65 73 -54 24 -71 24
-78 2z"/>
<path d="M6705 2461 c-117 -33 -222 -119 -244 -197 -12 -44 -15 -223 -3 -239
14 -21 68 -51 124 -69 46 -15 73 -18 138 -12 l81 7 -29 -43 c-61 -88 -192
-208 -260 -238 -102 -45 -236 -8 -265 73 -4 11 1 25 13 37 11 11 20 26 20 33
0 7 8 24 17 37 14 21 17 49 17 167 0 99 -3 146 -12 155 -20 20 -33 -4 -42 -76
-6 -52 -15 -74 -41 -108 l-33 -41 -9 39 c-5 21 -9 44 -10 51 0 14 -25 25 -38
17 -5 -3 -9 -29 -9 -58 0 -58 -32 -137 -69 -171 -26 -22 -41 -9 -34 29 3 13
-2 28 -11 36 -18 14 -29 9 -32 -18 -9 -59 -31 -109 -58 -132 -17 -14 -38 -33
-48 -42 -9 -9 -36 -27 -58 -38 l-41 -21 -38 33 c-22 18 -60 41 -86 50 -43 16
-49 17 -74 2 -66 -40 -79 -100 -52 -242 17 -87 40 -112 105 -112 23 0 46 4 52
9 5 4 24 13 42 19 33 11 33 11 28 -16 -4 -15 -8 -42 -11 -61 -4 -37 -17 -75
-44 -131 -50 -107 -154 -190 -236 -190 -39 0 -111 25 -139 49 -10 9 -32 45
-48 80 -28 59 -31 76 -38 225 -4 88 -11 170 -16 181 -16 40 -46 56 -97 52 -59
-5 -90 -32 -130 -114 -16 -32 -33 -66 -38 -75 -5 -10 -9 -63 -9 -118 0 -81 3
-100 15 -100 14 0 45 48 45 69 0 17 59 98 91 125 61 52 74 33 82 -119 4 -67
14 -137 27 -180 12 -38 24 -80 27 -93 3 -12 9 -22 13 -22 5 0 12 -10 16 -22
10 -34 71 -105 111 -129 50 -31 115 -41 172 -27 65 16 164 117 214 219 68 139
117 350 101 434 -6 33 -4 36 30 50 20 8 36 20 36 25 0 6 6 10 14 10 8 0 26 14
39 30 18 21 35 30 55 30 37 0 117 74 134 122 l11 31 21 -54 c45 -115 70 -143
161 -185 70 -32 125 -35 205 -8 44 14 69 32 125 90 85 88 101 106 127 150 11
19 24 34 30 34 5 0 7 4 3 9 -3 6 0 13 7 18 7 4 31 35 53 68 39 57 40 58 43 30
1 -17 9 -68 17 -115 29 -171 35 -219 35 -277 0 -42 5 -64 15 -73 13 -11 15 -5
15 41 0 30 -7 140 -15 244 -9 105 -17 209 -18 233 -3 35 1 46 17 58 11 8 16
14 11 14 -5 0 1 11 15 24 14 13 48 52 75 86 28 34 71 78 97 97 42 33 48 41 53
87 10 76 3 130 -16 134 -10 2 -61 -42 -130 -111 -63 -63 -123 -117 -134 -121
-18 -5 -20 -1 -21 52 0 81 -28 150 -76 190 -47 38 -88 41 -183 13z m158 -233
c34 -38 34 -46 1 -58 -39 -15 -254 -12 -283 4 l-23 13 30 21 c95 68 223 77
275 20z"/>
<path d="M10003 2393 c-8 -3 -10 -29 -6 -93 7 -104 -7 -167 -45 -206 l-26 -25
-8 21 c-4 12 -11 36 -14 53 -5 32 -18 47 -43 47 -10 0 -12 -14 -6 -69 5 -56 3
-77 -11 -108 -41 -90 -84 -122 -84 -64 0 42 -9 61 -30 61 -13 0 -19 -11 -24
-45 -4 -24 -11 -47 -17 -50 -5 -4 -9 -15 -9 -27 0 -37 -98 -155 -177 -213 -42
-30 -80 -55 -85 -55 -5 0 -17 -7 -26 -16 -13 -14 -17 -14 -21 -3 -19 60 -107
119 -177 119 -49 0 -56 -5 -84 -60 -19 -38 -23 -61 -24 -157 -1 -101 1 -113
19 -127 36 -27 103 -36 154 -20 63 19 70 18 64 -8 -5 -26 -54 -130 -64 -138
-3 -3 -14 -20 -23 -37 -24 -48 -129 -156 -199 -206 -96 -69 -159 -95 -327
-138 -39 -10 -169 -10 -215 0 -28 6 -29 8 -26 57 3 69 -17 182 -41 221 -15 26
-32 36 -84 52 -84 25 -150 65 -169 102 -16 30 -16 30 36 80 29 28 81 73 117
100 122 92 189 163 220 234 45 101 55 158 56 315 1 138 -1 159 -19 189 -41 69
-117 134 -175 151 -67 19 -120 -87 -120 -240 0 -83 2 -90 29 -119 25 -27 36
-31 83 -31 42 0 58 5 79 24 65 60 63 -75 -1 -144 -8 -9 -24 -27 -36 -41 -26
-30 -73 -69 -144 -123 -30 -23 -61 -48 -70 -56 -9 -8 -31 -29 -50 -46 -49 -43
-66 -78 -80 -165 -9 -57 -10 -89 -1 -128 6 -29 11 -64 11 -80 0 -28 42 -125
63 -145 32 -30 110 -65 182 -81 57 -13 69 -43 40 -99 -8 -15 -15 -36 -15 -45
-1 -9 -12 -34 -25 -56 -14 -22 -28 -47 -32 -55 -12 -27 -80 -115 -109 -141
-40 -36 -93 -66 -132 -74 -53 -11 -160 14 -218 50 -82 53 -115 113 -148 276
-6 27 28 219 43 247 5 9 10 20 10 24 1 5 9 25 18 45 8 21 19 47 23 58 4 11 16
40 26 65 11 24 19 47 20 50 0 3 7 21 16 40 41 91 88 263 75 276 -2 3 2 33 9
67 14 66 18 184 8 236 -5 21 -12 31 -25 31 -23 0 -27 -17 -33 -156 -5 -112
-26 -225 -52 -277 -8 -16 -14 -35 -14 -43 0 -8 -5 -22 -10 -32 -14 -24 -72
-157 -69 -157 2 0 -4 -13 -13 -30 -68 -129 -87 -218 -87 -402 0 -104 5 -169
15 -205 8 -29 16 -62 18 -73 8 -47 73 -163 116 -206 92 -92 237 -115 361 -56
56 26 130 96 151 142 6 14 14 25 18 25 19 0 110 233 110 282 0 15 4 28 8 28 5
0 44 -10 88 -22 67 -18 106 -22 254 -22 187 -1 236 8 320 60 41 25 104 88 128
126 9 16 20 28 24 28 4 0 8 5 8 10 0 6 10 27 23 48 44 70 97 257 97 340 0 39
2 42 58 70 31 16 75 41 97 56 41 28 151 136 138 136 -3 0 4 11 16 24 13 14 20
29 17 34 -3 6 11 13 31 17 36 6 123 73 123 94 0 5 7 14 15 21 8 7 13 15 10 19
-2 4 11 13 29 19 47 17 88 68 109 133 13 42 17 91 17 196 0 77 -3 155 -6 172
-7 32 -29 52 -51 44z"/>
</g>
</svg>
