<?xml version="1.0" standalone="no"?>
<!DOCTYPE svg PUBLIC "-//W3C//DTD SVG 20010904//EN"
 "http://www.w3.org/TR/2001/REC-SVG-20010904/DTD/svg10.dtd">
<svg version="1.0" xmlns="http://www.w3.org/2000/svg"
 width="512.000000pt" height="512.000000pt" viewBox="0 0 512.000000 512.000000"
 preserveAspectRatio="xMidYMid meet">
<metadata>
Created by potrace 1.16, written by Peter Selinger 2001-2019
</metadata>
<g transform="translate(0.000000,512.000000) scale(0.100000,-0.100000)"
fill="#000000" stroke="none">
<path d="M2287 5104 c-786 -122 -1393 -734 -1512 -1522 -19 -127 -19 -392 0
-530 62 -442 274 -940 670 -1568 125 -198 259 -394 580 -844 154 -217 313
-442 353 -500 40 -58 85 -113 101 -123 39 -23 124 -22 163 1 16 9 61 64 101
122 39 58 197 283 352 500 322 453 456 647 580 844 395 628 608 1126 670 1568
19 140 19 403 0 532 -119 792 -730 1402 -1523 1521 -121 19 -415 18 -535 -1z
m431 -905 c162 -25 345 -122 471 -248 173 -173 261 -386 261 -631 0 -247 -90
-462 -266 -636 -168 -166 -385 -255 -624 -255 -244 0 -462 92 -636 267 -167
169 -254 382 -254 624 0 248 89 461 266 635 208 206 482 291 782 244z"/>
<path d="M2403 3905 c-204 -55 -375 -228 -428 -432 -8 -32 -15 -100 -15 -153
0 -53 7 -121 15 -153 54 -207 225 -378 432 -432 73 -19 233 -19 306 0 207 54
378 225 432 432 19 73 19 233 0 306 -54 208 -224 377 -432 431 -75 20 -239 20
-310 1z"/>
</g>
</svg>
