<?xml version="1.0" standalone="no"?>
<!DOCTYPE svg PUBLIC "-//W3C//DTD SVG 20010904//EN"
 "http://www.w3.org/TR/2001/REC-SVG-20010904/DTD/svg10.dtd">
<svg version="1.0" xmlns="http://www.w3.org/2000/svg"
 width="512.000000pt" height="512.000000pt" viewBox="0 0 512.000000 512.000000"
 preserveAspectRatio="xMidYMid meet">

<g transform="translate(0.000000,512.000000) scale(0.100000,-0.100000)"
fill="#000000" stroke="none">
<path d="M2124 4430 c-18 -4 -47 -16 -65 -28 -19 -12 -266 -253 -549 -537
l-515 -515 -423 0 c-337 0 -429 -3 -455 -14 -39 -17 -92 -71 -106 -109 -7 -19
-11 -241 -11 -668 0 -522 3 -646 14 -672 17 -39 71 -92 109 -106 18 -7 177
-11 450 -11 l422 0 520 -521 c286 -286 534 -527 550 -536 85 -45 173 -34 240
31 27 25 47 56 54 81 15 55 15 3413 0 3468 -26 94 -139 160 -235 137z"/>
<path d="M2905 3284 c-93 -48 -133 -143 -105 -245 12 -44 65 -95 172 -167 124
-84 170 -167 170 -312 0 -149 -44 -226 -182 -320 -116 -80 -157 -125 -165
-184 -13 -85 13 -150 80 -202 30 -22 50 -29 101 -32 57 -4 72 0 136 30 195 93
347 280 409 503 32 114 32 296 0 412 -51 181 -160 343 -294 435 -135 92 -248
121 -322 82z"/>
</g>
</svg>
