<?xml version="1.0" standalone="no"?>
<!DOCTYPE svg PUBLIC "-//W3C//DTD SVG 20010904//EN"
 "http://www.w3.org/TR/2001/REC-SVG-20010904/DTD/svg10.dtd">
<svg version="1.0" xmlns="http://www.w3.org/2000/svg"
 width="512.000000pt" height="512.000000pt" viewBox="0 0 512.000000 512.000000"
 preserveAspectRatio="xMidYMid meet">

<g transform="translate(0.000000,512.000000) scale(0.100000,-0.100000)"
fill="#000000" stroke="none">
<path d="M2124 4430 c-18 -4 -47 -16 -65 -28 -19 -12 -266 -253 -549 -537
l-515 -515 -423 0 c-337 0 -429 -3 -455 -14 -39 -17 -92 -71 -106 -109 -7 -19
-11 -241 -11 -668 0 -522 3 -646 14 -672 17 -39 71 -92 109 -106 18 -7 177
-11 450 -11 l422 0 520 -521 c286 -286 534 -527 550 -536 85 -45 173 -34 240
31 27 25 47 56 54 81 15 55 15 3413 0 3468 -26 94 -139 160 -235 137z"/>
<path d="M2962 3459 c-32 -13 -140 -121 -152 -154 -13 -35 -13 -101 1 -128 6
-12 142 -154 302 -314 l292 -293 -292 -292 c-160 -161 -296 -303 -302 -315
-16 -32 -13 -100 5 -139 23 -49 127 -141 174 -155 84 -25 95 -17 420 307 l295
294 294 -294 c255 -255 300 -296 338 -306 63 -18 115 4 190 83 72 75 90 120
73 181 -10 37 -53 85 -306 337 l-294 293 294 296 c323 325 332 337 307 420
-14 47 -106 151 -155 174 -39 18 -107 21 -139 5 -12 -6 -154 -142 -314 -302
l-293 -292 -292 292 c-161 160 -303 296 -315 302 -26 13 -99 13 -131 0z"/>
</g>
</svg>
